<?xml version="1.0" encoding="UTF-8"?>
<svg id="Layer_1" xmlns="http://www.w3.org/2000/svg" version="1.1" viewBox="0 0 531.2 339.2">
  <!-- Generator: Adobe Illustrator 29.3.1, SVG Export Plug-In . SVG Version: 2.1.0 Build 151)  -->
  <defs>
    <style>
      .st0 {
        fill: #00ee34;
      }

      .st0, .st1, .st2 {
        isolation: isolate;
        opacity: .5;
      }

      .st1 {
        fill: #fe0799;
      }

      .st2 {
        fill: #fef100;
      }
    </style>
  </defs>
  <polygon class="st2" points="7.9 39.4 39.4 301.2 117.2 279.4 7.9 39.4"/>
  <polygon class="st1" points="56.6 251.6 134.4 272.9 160.8 25 56.6 251.6"/>
  <polygon class="st0" points="130.7 37.9 203.4 24.9 221 331.2 130.7 37.9"/>
  <polygon class="st2" points="203.9 261.4 268.3 273.9 281.3 7 203.9 261.4"/>
  <polygon class="st1" points="291.2 22.4 370 29.3 307.4 315.7 291.2 22.4"/>
  <polygon class="st0" points="352.5 40.3 352.5 289.1 429.9 276.6 352.5 40.3"/>
  <polygon class="st2" points="391.2 279.6 453.8 297.7 488.5 31.7 391.2 279.6"/>
  <polygon class="st1" points="458.9 94.1 525.2 94.1 500.1 308.6 458.9 94.1"/>
</svg>